<svg xmlns="http://www.w3.org/2000/svg" width="21.669" height="24.63" viewBox="0 0 21.669 24.63">
  <g id="share" transform="translate(-5.5 -5.5)">
    <path id="Path_30" data-name="Path 30" d="M29.13,6.315A3.315,3.315,0,1,1,25.815,3,3.315,3.315,0,0,1,29.13,6.315Z" transform="translate(-2.96 19.5)" fill="none" stroke="#4b23ea" stroke-linecap="round" stroke-linejoin="round" stroke-width="2"/>
    <path id="Path_31" data-name="Path 31" d="M11.139,16.82A3.32,3.32,0,1,1,7.82,13.5,3.32,3.32,0,0,1,11.139,16.82Z" transform="translate(2 1)" fill="none" stroke="#4b23ea" stroke-linecap="round" stroke-linejoin="round" stroke-width="2"/>
    <path id="Path_32" data-name="Path 32" d="M29.13,27.315A3.315,3.315,0,1,1,25.815,24,3.315,3.315,0,0,1,29.13,27.315Z" transform="translate(-2.96 -17.5)" fill="none" stroke="#4b23ea" stroke-linecap="round" stroke-linejoin="round" stroke-width="2"/>
    <path id="Path_33" data-name="Path 33" d="M12.885,20.265,19.295,24" transform="translate(0.245 0)" fill="none" stroke="#4b23ea" stroke-linecap="round" stroke-linejoin="round" stroke-width="2"/>
    <path id="Path_34" data-name="Path 34" d="M19.285,9.765l-6.4,3.735" transform="translate(0.254 2)" fill="none" stroke="#4b23ea" stroke-linecap="round" stroke-linejoin="round" stroke-width="2"/>
  </g>
</svg>
